<svg xmlns="http://www.w3.org/2000/svg" viewBox="0 0 512 512"><path fill="#5d5d5d" d="M255.501.499C174.053.499 107.79 66.763 107.79 148.21c0 50.449 25.429 95.065 64.137 121.724-36.139 12.471-69.263 33.071-97.091 60.899C26.577 379.093 0 443.254 0 511.501h39.922c0-118.871 96.708-215.579 215.579-215.579 81.448 0 147.711-66.264 147.711-147.712S336.949.499 255.501.499zm0 255.501c-59.435 0-107.789-48.354-107.789-107.789s48.354-107.79 107.789-107.79S363.29 88.775 363.29 148.211 314.936 256 255.501 256zM428.164 387.743v-83.837h-39.922v83.837h-83.837v39.922h83.837v83.836h39.922v-83.836H512v-39.922z"/></svg>