<svg xmlns="http://www.w3.org/2000/svg" viewBox="0 0 384 512" fill="#5b5b5b"><path d="M373.333 192h-32v-42.667C341.333 66.99 274.344 0 192 0S42.667 66.99 42.667 149.333V192h-32A10.66 10.66 0 0 0 0 202.667v266.667A42.708 42.708 0 0 0 42.667 512h298.667A42.708 42.708 0 0 0 384 469.333V202.667A10.66 10.66 0 0 0 373.333 192zM223.938 414.823a10.67 10.67 0 0 1-10.604 11.844h-42.667a10.67 10.67 0 0 1-10.604-11.844l6.729-60.51A42.2 42.2 0 0 1 149.334 320a42.667 42.667 0 1 1 85.334 0 42.2 42.2 0 0 1-17.458 34.313zM277.333 192H106.667v-42.667a85.333 85.333 0 1 1 170.666 0V192z"/></svg>